<?xml version="1.0" standalone="no"?>
<!DOCTYPE svg PUBLIC "-//W3C//DTD SVG 20010904//EN"
 "http://www.w3.org/TR/2001/REC-SVG-20010904/DTD/svg10.dtd">
<svg version="1.0" xmlns="http://www.w3.org/2000/svg"
 width="700.000000pt" height="700.000000pt" viewBox="0 0 700.000000 700.000000"
 preserveAspectRatio="xMidYMid meet">
<metadata>
Created by potrace 1.14, written by Peter Selinger 2001-2017
</metadata>
<g transform="translate(0.000000,700.000000) scale(0.100000,-0.100000)"
fill="#000000" stroke="none">
<path d="M0 3500 l0 -3500 3500 0 3500 0 0 3500 0 3500 -3500 0 -3500 0 0
-3500z m3675 2278 c87 -233 166 -441 175 -462 l16 -39 338 362 c187 199 341
360 343 357 2 -2 -3 -223 -12 -491 -10 -267 -15 -489 -12 -492 3 -3 208 87
456 200 248 112 451 202 451 200 0 -2 -92 -207 -205 -455 -112 -249 -203 -453
-202 -454 2 -2 747 22 905 29 50 2 92 3 92 1 0 -1 -162 -154 -360 -340 -198
-185 -360 -339 -360 -343 0 -3 186 -76 413 -160 226 -85 436 -164 465 -176
l53 -22 -465 -174 c-256 -96 -466 -177 -466 -181 0 -4 162 -158 360 -344 198
-185 359 -338 358 -339 -2 -2 -176 3 -388 11 -212 7 -436 15 -498 17 -77 2
-111 0 -108 -7 2 -6 95 -211 206 -455 110 -244 200 -444 198 -445 -2 -2 -205
89 -452 201 -247 112 -451 202 -453 199 -3 -3 2 -224 12 -491 9 -268 14 -489
12 -491 -3 -3 -157 157 -342 356 -186 198 -339 359 -341 357 -2 -1 -80 -207
-174 -457 -95 -250 -174 -458 -177 -463 -3 -5 -82 193 -174 439 -93 247 -173
457 -177 468 -7 15 -64 -42 -347 -344 -187 -199 -341 -357 -343 -351 -2 6 4
228 13 492 9 265 14 483 12 485 -2 3 -206 -87 -453 -199 -247 -112 -451 -203
-452 -201 -2 1 87 202 197 446 111 244 201 448 201 453 0 6 -32 9 -82 7 -486
-17 -904 -29 -906 -27 -2 1 159 154 358 339 198 186 360 340 360 344 0 4 -210
86 -466 182 l-465 174 68 26 c37 14 247 93 465 176 219 82 398 152 398 155 0
4 -162 158 -361 344 -198 185 -359 338 -357 340 2 1 226 -6 498 -15 272 -10
496 -17 497 -16 1 1 -90 204 -202 451 -112 248 -201 451 -197 453 4 1 207 -88
451 -199 244 -110 445 -198 448 -196 2 3 -3 224 -12 492 -9 267 -15 488 -12
491 2 2 150 -152 329 -343 179 -192 332 -354 340 -361 13 -10 39 50 188 448
95 253 176 460 180 460 3 0 77 -190 165 -422z"/>
</g>
</svg>
