<svg width="48" height="48" viewBox="0 0 48 48" fill="none" xmlns="http://www.w3.org/2000/svg">
<path fill-rule="evenodd" clip-rule="evenodd" d="M32.8092 13.3014C32.5912 13.0224 32.1072 12.8899 31.8327 13.1114C31.5587 13.3324 31.4107 13.8234 31.6282 14.1024C33.8547 16.9498 35.0316 20.3808 35.0316 24.0242C35.0316 27.6682 33.8547 31.0991 31.6282 33.9466C31.4107 34.2256 31.5587 34.7165 31.8327 34.9375C31.9497 35.0315 32.1732 34.9915 32.3112 34.9915C32.4982 34.9915 32.6842 34.908 32.8092 34.7475C35.2151 31.6696 36.4871 27.9617 36.4871 24.0242C36.4871 20.0873 35.2151 16.3793 32.8092 13.3014M29.3202 16.2738C29.1027 15.9993 28.6437 15.9053 28.3742 16.1288C28.1062 16.3518 27.8987 16.8063 28.1162 17.0803C29.6632 19.0313 30.5147 21.4922 30.5147 24.0087C30.5147 26.5256 29.6632 28.9861 28.1162 30.9371C27.8987 31.2111 28.0897 31.6656 28.3577 31.8886C28.4737 31.9851 28.6962 31.9801 28.8342 31.9801C29.0167 31.9801 29.1967 31.8996 29.3202 31.7436C31.0467 29.5651 31.9977 26.8186 31.9977 24.0087C31.9977 21.1992 31.0467 18.4523 29.3202 16.2738M24.7543 19.1273C24.4813 19.3513 24.2763 19.7458 24.5088 20.0083C25.4953 21.1233 26.0383 22.5438 26.0383 24.0082C26.0383 25.4732 25.4953 26.8937 24.5088 28.0082C24.2763 28.2707 24.4813 28.6657 24.7543 28.8892C24.8763 28.9897 25.0263 29.0392 25.1743 29.0392C25.3578 29.0392 25.5398 28.9642 25.6683 28.8197C26.8542 27.4792 27.5077 25.7702 27.5077 24.0082C27.5077 22.2463 26.8542 20.5378 25.6683 19.1973C25.4363 18.9348 25.0268 18.9023 24.7543 19.1273M21.0843 16.6838L15.3124 21.0122H11V27.5121H15.1099L21.0843 31.9931C21.3043 32.1581 21.4843 32.0681 21.4843 31.7931V16.8838C21.4843 16.6088 21.3043 16.5188 21.0843 16.6838" fill="white"/>
</svg>
