<svg width="46" height="46" viewBox="0 0 46 46" fill="none" xmlns="http://www.w3.org/2000/svg">
<circle cx="23" cy="23" r="23" fill="#2FC516"/>
<path fill-rule="evenodd" clip-rule="evenodd" d="M31.8092 12.3014C31.5912 12.0224 31.1072 11.8899 30.8327 12.1114C30.5587 12.3324 30.4107 12.8234 30.6282 13.1024C32.8547 15.9498 34.0316 19.3808 34.0316 23.0242C34.0316 26.6682 32.8547 30.0991 30.6282 32.9466C30.4107 33.2256 30.5587 33.7165 30.8327 33.9375C30.9497 34.0315 31.1732 33.9915 31.3112 33.9915C31.4982 33.9915 31.6842 33.908 31.8092 33.7475C34.2151 30.6696 35.4871 26.9617 35.4871 23.0242C35.4871 19.0873 34.2151 15.3793 31.8092 12.3014ZM28.3202 15.2738C28.1027 14.9993 27.6437 14.9053 27.3742 15.1288C27.1062 15.3518 26.8987 15.8063 27.1162 16.0803C28.6632 18.0313 29.5147 20.4922 29.5147 23.0087C29.5147 25.5256 28.6632 27.9861 27.1162 29.9371C26.8987 30.2111 27.0897 30.6656 27.3577 30.8886C27.4737 30.9851 27.6962 30.9801 27.8342 30.9801C28.0167 30.9801 28.1967 30.8996 28.3202 30.7436C30.0467 28.5651 30.9977 25.8186 30.9977 23.0087C30.9977 20.1992 30.0467 17.4523 28.3202 15.2738ZM23.7543 18.1273C23.4813 18.3513 23.2763 18.7458 23.5088 19.0083C24.4953 20.1233 25.0383 21.5438 25.0383 23.0082C25.0383 24.4732 24.4953 25.8937 23.5088 27.0082C23.2763 27.2707 23.4813 27.6657 23.7543 27.8892C23.8763 27.9897 24.0263 28.0392 24.1743 28.0392C24.3578 28.0392 24.5398 27.9642 24.6683 27.8197C25.8542 26.4792 26.5077 24.7702 26.5077 23.0082C26.5077 21.2463 25.8542 19.5378 24.6683 18.1973C24.4363 17.9348 24.0268 17.9023 23.7543 18.1273ZM20.0843 15.6838L14.3124 20.0122H10V26.5121H14.1099L20.0843 30.9931C20.3043 31.1581 20.4843 31.0681 20.4843 30.7931V15.8838C20.4843 15.6088 20.3043 15.5188 20.0843 15.6838Z" fill="white"/>
</svg>
